<mxfile host="Electron" modified="2023-05-16T22:08:19.205Z" agent="Mozilla/5.0 (Windows NT 10.0; Win64; x64) AppleWebKit/537.36 (KHTML, like Gecko) draw.io/21.2.8 Chrome/112.0.5615.165 Electron/24.2.0 Safari/537.36" etag="COebJY9Wif97UwGLLdTj" version="21.2.8" type="device">
  <diagram name="Page-1" id="R0evHIVftFPndklodNWn">
    <mxGraphModel dx="1416" dy="788" grid="1" gridSize="10" guides="1" tooltips="1" connect="1" arrows="1" fold="1" page="1" pageScale="1" pageWidth="850" pageHeight="1100" math="0" shadow="0">
      <root>
        <mxCell id="0" />
        <mxCell id="1" parent="0" />
        <mxCell id="iokHczVf4ODo_NCteRrR-29" value="" style="rounded=0;whiteSpace=wrap;html=1;" vertex="1" parent="1">
          <mxGeometry x="10" y="70" width="715" height="480" as="geometry" />
        </mxCell>
        <mxCell id="iokHczVf4ODo_NCteRrR-28" value="" style="rounded=0;whiteSpace=wrap;html=1;" vertex="1" parent="1">
          <mxGeometry x="25" y="150" width="685" height="376.5" as="geometry" />
        </mxCell>
        <mxCell id="iokHczVf4ODo_NCteRrR-26" value="" style="whiteSpace=wrap;html=1;aspect=fixed;" vertex="1" parent="1">
          <mxGeometry x="368.25" y="220" width="274.25" height="274.25" as="geometry" />
        </mxCell>
        <mxCell id="iokHczVf4ODo_NCteRrR-25" value="" style="whiteSpace=wrap;html=1;aspect=fixed;" vertex="1" parent="1">
          <mxGeometry x="70" y="215.75" width="280" height="280" as="geometry" />
        </mxCell>
        <mxCell id="VcOmVerZI97Z5VlrNYac-29" value="&lt;b&gt;Private subnet&lt;/b&gt;" style="text;html=1;align=center;verticalAlign=middle;resizable=0;points=[];autosize=1;strokeColor=none;fillColor=none;" parent="1" vertex="1">
          <mxGeometry x="65" y="215.75" width="110" height="30" as="geometry" />
        </mxCell>
        <mxCell id="VcOmVerZI97Z5VlrNYac-12" value="" style="outlineConnect=0;dashed=0;verticalLabelPosition=bottom;verticalAlign=top;align=center;html=1;shape=mxgraph.aws3.s3;fillColor=#E05243;gradientColor=none;" parent="1" vertex="1">
          <mxGeometry x="441.75" y="310.63" width="76.5" height="93" as="geometry" />
        </mxCell>
        <mxCell id="VcOmVerZI97Z5VlrNYac-22" value="&lt;b&gt;S3&lt;/b&gt;" style="text;html=1;align=center;verticalAlign=middle;resizable=0;points=[];autosize=1;strokeColor=none;fillColor=none;" parent="1" vertex="1">
          <mxGeometry x="460" y="403.63" width="40" height="30" as="geometry" />
        </mxCell>
        <mxCell id="VcOmVerZI97Z5VlrNYac-28" value="&lt;b&gt;Public subnet&lt;/b&gt;" style="text;html=1;align=center;verticalAlign=middle;resizable=0;points=[];autosize=1;strokeColor=none;fillColor=none;" parent="1" vertex="1">
          <mxGeometry x="368.25" y="220" width="100" height="30" as="geometry" />
        </mxCell>
        <mxCell id="VcOmVerZI97Z5VlrNYac-5" value="" style="outlineConnect=0;dashed=0;verticalLabelPosition=bottom;verticalAlign=top;align=center;html=1;shape=mxgraph.aws3.cloud_2;fillColor=#F58534;gradientColor=none;" parent="1" vertex="1">
          <mxGeometry x="40" y="90" width="40" height="40" as="geometry" />
        </mxCell>
        <mxCell id="VcOmVerZI97Z5VlrNYac-1" value="" style="outlineConnect=0;dashed=0;verticalLabelPosition=bottom;verticalAlign=top;align=center;html=1;shape=mxgraph.aws3.ec2;fillColor=#F58534;gradientColor=none;" parent="1" vertex="1">
          <mxGeometry x="250" y="319.24" width="70" height="73" as="geometry" />
        </mxCell>
        <mxCell id="VcOmVerZI97Z5VlrNYac-21" value="&lt;b&gt;EC2&lt;/b&gt;" style="text;html=1;align=center;verticalAlign=middle;resizable=0;points=[];autosize=1;strokeColor=none;fillColor=none;" parent="1" vertex="1">
          <mxGeometry x="260" y="393" width="50" height="30" as="geometry" />
        </mxCell>
        <mxCell id="VcOmVerZI97Z5VlrNYac-3" value="" style="outlineConnect=0;dashed=0;verticalLabelPosition=bottom;verticalAlign=top;align=center;html=1;shape=mxgraph.aws3.mysql_db_instance;fillColor=#2E73B8;gradientColor=none;" parent="1" vertex="1">
          <mxGeometry x="90" y="306.49" width="80" height="85.75" as="geometry" />
        </mxCell>
        <mxCell id="VcOmVerZI97Z5VlrNYac-23" value="&lt;b&gt;DATABASE&lt;/b&gt;" style="text;html=1;align=center;verticalAlign=middle;resizable=0;points=[];autosize=1;strokeColor=none;fillColor=none;" parent="1" vertex="1">
          <mxGeometry x="85" y="393" width="90" height="30" as="geometry" />
        </mxCell>
        <mxCell id="iokHczVf4ODo_NCteRrR-19" value="" style="endArrow=classic;html=1;rounded=0;" edge="1" parent="1">
          <mxGeometry width="50" height="50" relative="1" as="geometry">
            <mxPoint x="180" y="345.75" as="sourcePoint" />
            <mxPoint x="240" y="345.75" as="targetPoint" />
          </mxGeometry>
        </mxCell>
        <mxCell id="iokHczVf4ODo_NCteRrR-20" value="" style="endArrow=classic;html=1;rounded=0;" edge="1" parent="1">
          <mxGeometry width="50" height="50" relative="1" as="geometry">
            <mxPoint x="240" y="364.75" as="sourcePoint" />
            <mxPoint x="180" y="364.75" as="targetPoint" />
          </mxGeometry>
        </mxCell>
        <mxCell id="iokHczVf4ODo_NCteRrR-21" value="" style="endArrow=classic;html=1;rounded=0;" edge="1" parent="1">
          <mxGeometry width="50" height="50" relative="1" as="geometry">
            <mxPoint x="330" y="345.75" as="sourcePoint" />
            <mxPoint x="390" y="345.75" as="targetPoint" />
          </mxGeometry>
        </mxCell>
        <mxCell id="iokHczVf4ODo_NCteRrR-22" value="" style="endArrow=classic;html=1;rounded=0;" edge="1" parent="1">
          <mxGeometry width="50" height="50" relative="1" as="geometry">
            <mxPoint x="390" y="364.75" as="sourcePoint" />
            <mxPoint x="330" y="364.75" as="targetPoint" />
          </mxGeometry>
        </mxCell>
        <mxCell id="iokHczVf4ODo_NCteRrR-30" value="" style="outlineConnect=0;dashed=0;verticalLabelPosition=bottom;verticalAlign=top;align=center;html=1;shape=mxgraph.aws3.virtual_private_cloud;fillColor=#F58534;gradientColor=none;" vertex="1" parent="1">
          <mxGeometry x="45" y="160" width="55" height="40" as="geometry" />
        </mxCell>
        <mxCell id="iokHczVf4ODo_NCteRrR-32" value="&lt;b&gt;Region&lt;/b&gt;" style="text;html=1;align=center;verticalAlign=middle;resizable=0;points=[];autosize=1;strokeColor=none;fillColor=none;" vertex="1" parent="1">
          <mxGeometry x="90" y="90" width="60" height="30" as="geometry" />
        </mxCell>
        <mxCell id="iokHczVf4ODo_NCteRrR-34" value="" style="outlineConnect=0;dashed=0;verticalLabelPosition=bottom;verticalAlign=top;align=center;html=1;shape=mxgraph.aws3.internet_gateway;fillColor=#F58534;gradientColor=none;" vertex="1" parent="1">
          <mxGeometry x="610" y="319.24" width="69" height="72" as="geometry" />
        </mxCell>
        <mxCell id="iokHczVf4ODo_NCteRrR-35" value="" style="endArrow=classic;html=1;rounded=0;" edge="1" parent="1">
          <mxGeometry width="50" height="50" relative="1" as="geometry">
            <mxPoint x="540" y="347.13" as="sourcePoint" />
            <mxPoint x="600" y="347.13" as="targetPoint" />
          </mxGeometry>
        </mxCell>
        <mxCell id="iokHczVf4ODo_NCteRrR-36" value="" style="endArrow=classic;html=1;rounded=0;" edge="1" parent="1">
          <mxGeometry width="50" height="50" relative="1" as="geometry">
            <mxPoint x="600" y="366.13" as="sourcePoint" />
            <mxPoint x="540" y="366.13" as="targetPoint" />
          </mxGeometry>
        </mxCell>
        <mxCell id="iokHczVf4ODo_NCteRrR-37" value="&lt;b&gt;Internet Gateway&lt;/b&gt;" style="text;html=1;align=center;verticalAlign=middle;resizable=0;points=[];autosize=1;strokeColor=none;fillColor=none;" vertex="1" parent="1">
          <mxGeometry x="584.5" y="392.24" width="120" height="30" as="geometry" />
        </mxCell>
        <mxCell id="iokHczVf4ODo_NCteRrR-38" value="" style="outlineConnect=0;dashed=0;verticalLabelPosition=bottom;verticalAlign=top;align=center;html=1;shape=mxgraph.aws3.internet;fillColor=#D2D3D3;gradientColor=none;" vertex="1" parent="1">
          <mxGeometry x="760" y="324.13" width="79.5" height="79.5" as="geometry" />
        </mxCell>
        <mxCell id="iokHczVf4ODo_NCteRrR-39" value="" style="outlineConnect=0;dashed=0;verticalLabelPosition=bottom;verticalAlign=top;align=center;html=1;shape=mxgraph.aws3.management_console;fillColor=#D2D3D3;gradientColor=none;" vertex="1" parent="1">
          <mxGeometry x="768.25" y="170" width="63" height="63" as="geometry" />
        </mxCell>
        <mxCell id="iokHczVf4ODo_NCteRrR-40" value="" style="endArrow=classic;html=1;rounded=0;" edge="1" parent="1">
          <mxGeometry width="50" height="50" relative="1" as="geometry">
            <mxPoint x="688.25" y="347.13" as="sourcePoint" />
            <mxPoint x="748.25" y="347.13" as="targetPoint" />
          </mxGeometry>
        </mxCell>
        <mxCell id="iokHczVf4ODo_NCteRrR-41" value="" style="endArrow=classic;html=1;rounded=0;" edge="1" parent="1">
          <mxGeometry width="50" height="50" relative="1" as="geometry">
            <mxPoint x="748.25" y="366.13" as="sourcePoint" />
            <mxPoint x="688.25" y="366.13" as="targetPoint" />
          </mxGeometry>
        </mxCell>
        <mxCell id="iokHczVf4ODo_NCteRrR-47" value="" style="endArrow=classic;html=1;rounded=0;" edge="1" parent="1">
          <mxGeometry width="50" height="50" relative="1" as="geometry">
            <mxPoint x="789.25" y="309.63" as="sourcePoint" />
            <mxPoint x="789.25" y="259.63" as="targetPoint" />
          </mxGeometry>
        </mxCell>
        <mxCell id="iokHczVf4ODo_NCteRrR-48" value="" style="endArrow=classic;html=1;rounded=0;" edge="1" parent="1">
          <mxGeometry width="50" height="50" relative="1" as="geometry">
            <mxPoint x="809.25" y="259.63" as="sourcePoint" />
            <mxPoint x="809.25" y="310.63" as="targetPoint" />
          </mxGeometry>
        </mxCell>
        <mxCell id="iokHczVf4ODo_NCteRrR-49" value="&lt;b&gt;Internet&amp;nbsp;&lt;/b&gt;" style="text;html=1;align=center;verticalAlign=middle;resizable=0;points=[];autosize=1;strokeColor=none;fillColor=none;" vertex="1" parent="1">
          <mxGeometry x="764.75" y="422.24" width="70" height="30" as="geometry" />
        </mxCell>
        <mxCell id="iokHczVf4ODo_NCteRrR-50" value="&lt;b&gt;Cliente&lt;/b&gt;" style="text;html=1;align=center;verticalAlign=middle;resizable=0;points=[];autosize=1;strokeColor=none;fillColor=none;" vertex="1" parent="1">
          <mxGeometry x="769.75" y="140" width="60" height="30" as="geometry" />
        </mxCell>
      </root>
    </mxGraphModel>
  </diagram>
</mxfile>
